<?xml version="1.0" encoding="UTF-8"?>
<svg width="14px" height="16px" viewBox="0 0 14 16" version="1.1" xmlns="http://www.w3.org/2000/svg" xmlns:xlink="http://www.w3.org/1999/xlink">
    <!-- Generator: Sketch 58 (84663) - https://sketch.com -->
    <title>Account</title>
    <desc>Created with Sketch.</desc>
    <g id="Symbols" stroke="none" stroke-width="1" fill="none" fill-rule="evenodd">
        <g id="MAIN-NAV/960/Default" transform="translate(-881.000000, -15.000000)" fill="#000000">
            <g id="SIGN-IN" transform="translate(870.000000, 15.000000)">
                <g id="UI/Account/Black" transform="translate(11.000000, 0.000000)">
                    <path d="M7,7.78378378 C4.8251875,7.78378378 3.0625,6.04151351 3.0625,3.89189189 C3.0625,1.74227027 4.8251875,0 7,0 C9.1748125,0 10.9375,1.74227027 10.9375,3.89189189 C10.9375,6.04151351 9.1748125,7.78378378 7,7.78378378 M14,15.5675676 C14,15.8041081 13.80575,16 13.5655625,16 L0.4344375,16 C0.19775,16 0,15.8067027 0,15.5675676 C0,11.7465946 3.13425,8.64864865 7,8.64864865 C10.8661875,8.64864865 14,11.7465946 14,15.5675676" id="Fill-1"></path>
                </g>
            </g>
        </g>
    </g>
</svg>